<svg width="120" height="28" viewBox="0 0 120 28" fill="none" xmlns="http://www.w3.org/2000/svg">
<path d="M113.197 17.2149C112.017 17.2149 110.952 16.9544 110.002 16.4335C109.067 15.8972 108.332 15.1617 107.796 14.227C107.259 13.2923 106.991 12.1891 106.991 10.9173C106.991 9.64557 107.259 8.54235 107.796 7.60767C108.332 6.67299 109.067 5.94517 110.002 5.4242C110.952 4.90323 112.017 4.64275 113.197 4.64275C114.224 4.64275 115.143 4.87258 115.955 5.33226C116.767 5.77662 117.411 6.45847 117.886 7.37783C118.361 8.29718 118.598 9.47702 118.598 10.9173C118.598 12.3423 118.368 13.5222 117.909 14.4569C117.449 15.3762 116.813 16.0657 116.001 16.5254C115.189 16.9851 114.254 17.2149 113.197 17.2149ZM113.542 14.7557C114.231 14.7557 114.844 14.6024 115.38 14.296C115.932 13.9895 116.369 13.5452 116.69 12.9629C117.028 12.3807 117.196 11.6988 117.196 10.9173C117.196 10.1206 117.028 9.43872 116.69 8.87178C116.369 8.28952 115.932 7.84517 115.38 7.53872C114.844 7.23226 114.231 7.07904 113.542 7.07904C112.852 7.07904 112.232 7.23226 111.68 7.53872C111.144 7.84517 110.707 8.28952 110.37 8.87178C110.048 9.43872 109.887 10.1206 109.887 10.9173C109.887 11.6988 110.048 12.3807 110.37 12.9629C110.707 13.5452 111.144 13.9895 111.68 14.296C112.232 14.6024 112.852 14.7557 113.542 14.7557ZM117.265 17.054V14.1581L117.38 10.8944L117.15 7.63065V0H120V17.054H117.265Z" fill="#003462"/>
<path d="M87.5195 17.0536L94.7595 0.964844H97.7014L104.964 17.0536H101.839L95.6099 2.55073H96.8051L90.5994 17.0536H87.5195ZM90.8522 13.3302L91.6566 10.9858H100.345L101.149 13.3302H90.8522Z" fill="#003462"/>
<path d="M79.1475 11.8601V9.46973H85.4681V11.8601H79.1475Z" fill="#003462"/>
<path d="M71.7451 17.054V0H74.6181V17.054H71.7451Z" fill="#003462"/>
<path d="M63.9673 17.0539V14.5716L63.8065 14.043V9.69903C63.8065 8.85629 63.5536 8.20508 63.048 7.7454C62.5423 7.2704 61.7762 7.0329 60.7496 7.0329C60.0601 7.0329 59.3782 7.14016 58.704 7.35468C58.0451 7.56919 57.4859 7.86798 57.0262 8.25105L55.9 6.15951C56.5588 5.65387 57.3403 5.27847 58.2443 5.0333C59.1637 4.77282 60.1137 4.64258 61.0943 4.64258C62.8718 4.64258 64.2431 5.07161 65.2085 5.92968C66.1891 6.77242 66.6795 8.0825 66.6795 9.85992V17.0539H63.9673ZM60.106 17.2148C59.1867 17.2148 58.3822 17.0615 57.6927 16.7551C57.0032 16.4333 56.4669 15.9966 56.0838 15.445C55.7161 14.8781 55.5322 14.2422 55.5322 13.5373C55.5322 12.8478 55.6931 12.2273 56.0149 11.6756C56.352 11.124 56.8959 10.6873 57.6468 10.3656C58.3976 10.0438 59.3935 9.88291 60.6347 9.88291H64.1972V11.7906H60.8415C59.8609 11.7906 59.202 11.9515 58.8649 12.2732C58.5278 12.5797 58.3593 12.9627 58.3593 13.4224C58.3593 13.9434 58.5661 14.3571 58.9798 14.6636C59.3935 14.97 59.9681 15.1232 60.7036 15.1232C61.4085 15.1232 62.0367 14.9623 62.5883 14.6406C63.1552 14.3188 63.5613 13.8438 63.8065 13.2156L64.2891 14.9394C64.0133 15.6595 63.5153 16.2188 62.7952 16.6172C62.0903 17.0156 61.1939 17.2148 60.106 17.2148Z" fill="#003462"/>
<path d="M44.442 17.2149C43.2622 17.2149 42.1972 16.9544 41.2472 16.4335C40.3126 15.8972 39.5771 15.1617 39.0408 14.227C38.5045 13.2923 38.2363 12.1891 38.2363 10.9173C38.2363 9.64557 38.5045 8.54235 39.0408 7.60767C39.5771 6.67299 40.3126 5.94517 41.2472 5.4242C42.1972 4.90323 43.2622 4.64275 44.442 4.64275C45.4686 4.64275 46.388 4.87258 47.2001 5.33226C48.0122 5.77662 48.6557 6.45847 49.1307 7.37783C49.6057 8.29718 49.8432 9.47702 49.8432 10.9173C49.8432 12.3423 49.6134 13.5222 49.1537 14.4569C48.694 15.3762 48.0581 16.0657 47.246 16.5254C46.4339 16.9851 45.4993 17.2149 44.442 17.2149ZM44.7868 14.7557C45.4763 14.7557 46.0892 14.6024 46.6255 14.296C47.1771 13.9895 47.6138 13.5452 47.9356 12.9629C48.2727 12.3807 48.4412 11.6988 48.4412 10.9173C48.4412 10.1206 48.2727 9.43872 47.9356 8.87178C47.6138 8.28952 47.1771 7.84517 46.6255 7.53872C46.0892 7.23226 45.4763 7.07904 44.7868 7.07904C44.0972 7.07904 43.4767 7.23226 42.9251 7.53872C42.3888 7.84517 41.9521 8.28952 41.615 8.87178C41.2932 9.43872 41.1323 10.1206 41.1323 10.9173C41.1323 11.6988 41.2932 12.3807 41.615 12.9629C41.9521 13.5452 42.3888 13.9895 42.9251 14.296C43.4767 14.6024 44.0972 14.7557 44.7868 14.7557ZM48.5102 17.054V14.1581L48.6251 10.8944L48.3952 7.63065V0H51.2453V17.054H48.5102Z" fill="#003462"/>
<path d="M28.5714 17.2148C27.3149 17.2148 26.1964 16.9466 25.2157 16.4103C24.2351 15.8587 23.4613 15.1079 22.8944 14.1579C22.3274 13.2079 22.0439 12.1277 22.0439 10.9172C22.0439 9.69137 22.3274 8.61113 22.8944 7.67645C23.4613 6.72645 24.2351 5.9833 25.2157 5.44701C26.1964 4.91072 27.3149 4.64258 28.5714 4.64258C29.8432 4.64258 30.9694 4.91072 31.95 5.44701C32.946 5.9833 33.7198 6.71879 34.2714 7.65347C34.8384 8.58815 35.1218 9.67605 35.1218 10.9172C35.1218 12.1277 34.8384 13.2079 34.2714 14.1579C33.7198 15.1079 32.946 15.8587 31.95 16.4103C30.9694 16.9466 29.8432 17.2148 28.5714 17.2148ZM28.5714 14.7555C29.2762 14.7555 29.9045 14.6023 30.4561 14.2958C31.0077 13.9894 31.4367 13.545 31.7432 12.9627C32.065 12.3805 32.2258 11.6986 32.2258 10.9172C32.2258 10.1204 32.065 9.43855 31.7432 8.87161C31.4367 8.28936 31.0077 7.845 30.4561 7.53855C29.9045 7.2321 29.2839 7.07887 28.5944 7.07887C27.8895 7.07887 27.2613 7.2321 26.7097 7.53855C26.1734 7.845 25.7444 8.28936 25.4226 8.87161C25.1008 9.43855 24.9399 10.1204 24.9399 10.9172C24.9399 11.6986 25.1008 12.3805 25.4226 12.9627C25.7444 13.545 26.1734 13.9894 26.7097 14.2958C27.2613 14.6023 27.8819 14.7555 28.5714 14.7555Z" fill="#003462"/>
<path d="M0 17.0536V0.964844H2.45929L9.49238 12.7096H8.20528L15.1235 0.964844H17.5827L17.6057 17.0536H14.7787L14.7557 5.40073H15.3533L9.4694 15.2149H8.13633L2.16049 5.40073H2.85001V17.0536H0Z" fill="#003462"/>
<path d="M82.5156 27.3974V20.9619H85.1542C86.0123 20.9619 86.6834 21.1642 87.1676 21.5687C87.6579 21.9732 87.9031 22.534 87.9031 23.2511C87.9031 23.723 87.7927 24.1306 87.5721 24.4739C87.3515 24.8109 87.0358 25.0714 86.6252 25.2553C86.2206 25.433 85.7334 25.5219 85.1634 25.5219H83.1776L83.7108 24.9795V27.3974H82.5156ZM86.7263 27.3974L85.099 25.0622H86.3769L88.0134 27.3974H86.7263ZM83.7108 25.1082L83.1776 24.5382H85.1082C85.6353 24.5382 86.0306 24.4248 86.2942 24.198C86.5639 23.9713 86.6987 23.6556 86.6987 23.2511C86.6987 22.8405 86.5639 22.5248 86.2942 22.3042C86.0306 22.0835 85.6353 21.9732 85.1082 21.9732H83.1776L83.7108 21.3848V25.1082Z" fill="#003462"/>
<path d="M74.9775 27.3974V20.9619H79.6755V21.964H76.1727V26.3953H79.8042V27.3974H74.9775ZM76.0808 24.6209V23.6372H79.2801V24.6209H76.0808Z" fill="#003462"/>
<path d="M69.5031 27.4895C69.0005 27.4895 68.5378 27.4098 68.1149 27.2504C67.6981 27.085 67.3334 26.8551 67.0208 26.5609C66.7082 26.2606 66.4661 25.9082 66.2945 25.5037C66.1229 25.0992 66.0371 24.6579 66.0371 24.1798C66.0371 23.7017 66.1229 23.2604 66.2945 22.8559C66.4661 22.4514 66.7082 22.1021 67.0208 21.8079C67.3395 21.5075 67.7103 21.2777 68.1332 21.1183C68.5562 20.9529 69.0189 20.8701 69.5215 20.8701C70.067 20.8701 70.5573 20.959 70.9925 21.1367C71.4337 21.3145 71.8046 21.575 72.1049 21.9182L71.351 22.6537C71.0997 22.4024 70.827 22.2185 70.5328 22.1021C70.2447 21.9795 69.926 21.9182 69.5766 21.9182C69.2395 21.9182 68.927 21.9733 68.6389 22.0837C68.3508 22.194 68.1026 22.3503 67.8942 22.5525C67.6858 22.7548 67.5234 22.9938 67.407 23.2696C67.2966 23.5454 67.2415 23.8488 67.2415 24.1798C67.2415 24.5046 67.2966 24.805 67.407 25.0808C67.5234 25.3566 67.6858 25.5987 67.8942 25.8071C68.1026 26.0093 68.3478 26.1656 68.6297 26.2759C68.9116 26.3863 69.2242 26.4414 69.5675 26.4414C69.8862 26.4414 70.1926 26.3924 70.4868 26.2943C70.7871 26.1901 71.0721 26.0185 71.3418 25.7795L72.0221 26.6713C71.685 26.9409 71.2928 27.1463 70.8454 27.2872C70.4041 27.4221 69.9566 27.4895 69.5031 27.4895ZM72.0221 26.6713L70.8913 26.515V24.1062H72.0221V26.6713Z" fill="#003462"/>
<path d="M57.4102 27.3974L60.3061 20.9619H61.4829L64.3881 27.3974H63.1378L60.6463 21.5963H61.1244L58.6421 27.3974H57.4102ZM58.7432 25.908L59.065 24.9703H62.5402L62.862 25.908H58.7432Z" fill="#003462"/>
<path d="M49.5 27.3974V20.9619H50.4837L54.5197 25.9172H54.0324V20.9619H55.2184V27.3974H54.2347L50.1987 22.4421H50.686V27.3974H49.5Z" fill="#003462"/>
<path d="M40.3242 27.3974L43.2202 20.9619H44.397L47.3022 27.3974H46.0518L43.5604 21.5963H44.0384L41.5562 27.3974H40.3242ZM41.6573 25.908L41.9791 24.9703H45.4542L45.776 25.908H41.6573Z" fill="#003462"/>
<path d="M31.0742 27.3974V20.9619H32.0579L34.8712 25.6598H34.3563L37.1236 20.9619H38.1073L38.1165 27.3974H36.9857L36.9765 22.7363H37.2155L34.862 26.6619H34.3287L31.9384 22.7363H32.2142V27.3974H31.0742Z" fill="#003462"/>
</svg>
